<?xml version="1.0" encoding="UTF-8" standalone="no"?>
<svg
   id="svgcontent"
   width="954.99994"
   height="626"
   x="0"
   y="0"
   overflow="visible"
   viewBox="304.424 155.071 350.43798 255.117"
   version="1.1"
   sodipodi:docname="flychombi logo.svg"
   inkscape:export-filename="..\Desktop\flychombi logo.svg"
   inkscape:export-xdpi="96"
   inkscape:export-ydpi="96"
   xmlns:inkscape="http://www.inkscape.org/namespaces/inkscape"
   xmlns:sodipodi="http://sodipodi.sourceforge.net/DTD/sodipodi-0.dtd"
   xmlns="http://www.w3.org/2000/svg"
   xmlns:svg="http://www.w3.org/2000/svg">
  <sodipodi:namedview
     id="namedview1"
     pagecolor="#ffffff"
     bordercolor="#000000"
     borderopacity="0.25"
     inkscape:showpageshadow="2"
     inkscape:pageopacity="0.0"
     inkscape:pagecheckerboard="0"
     inkscape:deskcolor="#d1d1d1" />
  <defs
     id="defs1">
    <clipPath
       id="bound_0"
       xe_id="bound_0">
      <rect
         id="xe_m8vzw0"
         x="215.42"
         y="125.8"
         pointer-events="all"
         width="524.15997"
         height="374.39999" />
    </clipPath>
  </defs>
  <g
     id="bounds"
     display="none">
    <path
       d="M 215.42,125.8 H 739.58 V 500.2 H 215.42 Z"
       x="215.41999999999996"
       y="125.79999999999995"
       width="524.1600000000001"
       height="374.4000000000001"
       awidth="7"
       aheight="5"
       fill="none"
       stroke="#006400"
       isbleed="0"
       safeval="0"
       cropval="0"
       stroke-miterlimit="null"
       stroke-width="1"
       pointer-events="all"
       id="path1"
       xe_id="bound_0" />
  </g>
  <g
     class="layer"
     id="Layer_0"
     xe_id="Layer_0"
     clip-path="url(#bound_0)">
    <title
       id="title1">Layer_0</title>
    <g
       id="background"
       type="bg_area_0"
       pointer-events="none"
       style="color-interpolation-filters:sRGB" />
    <g
       id="xe_bzh9al"
       type="image"
       pointer-events="bounding-box"
       xe-props="&amp;#35;&amp;#103;&amp;#76;&amp;#73;&amp;#65;&amp;#101;&amp;#122;&amp;#127;&amp;#26;&amp;#89;&amp;#92;&amp;#97;&amp;#63;&amp;#32;&amp;#26;&amp;#28;&amp;#19;&amp;#111;&amp;#58;&amp;#47;&amp;#93;&amp;#83;&amp;#69;&amp;#84;&amp;#49;&amp;#49;&amp;#84;&amp;#85;&amp;#19;&amp;#58;&amp;#122;&amp;#103;&amp;#20;&amp;#18;&amp;#88;&amp;#115;&amp;#12;&amp;#32;&amp;#85;&amp;#64;&amp;#93;&amp;#97;&amp;#44;&amp;#32;&amp;#113;&amp;#93;&amp;#86;&amp;#34;&amp;#98;&amp;#35;&amp;#89;&amp;#92;&amp;#66;&amp;#101;&amp;#116;&amp;#103;&amp;#91;&amp;#95;&amp;#95;&amp;#116;&amp;#61;&amp;#43;&amp;#76;&amp;#100;&amp;#72;&amp;#112;&amp;#61;&amp;#103;&amp;#2;&amp;#18;&amp;#88;&amp;#109;&amp;#57;&amp;#34;&amp;#93;&amp;#31;&amp;#66;&amp;#118;&amp;#63;&amp;#110;&amp;#64;&amp;#93;&amp;#93;&amp;#34;&amp;#116;&amp;#103;&amp;#81;&amp;#93;&amp;#86;&amp;#69;&amp;#32;&amp;#49;&amp;#93;&amp;#94;&amp;#66;&amp;#105;&amp;#55;&amp;#43;&amp;#26;&amp;#10;&amp;#19;&amp;#115;&amp;#46;&amp;#34;&amp;#26;&amp;#28;&amp;#19;&amp;#111;&amp;#54;&amp;#32;&amp;#123;&amp;#95;&amp;#93;&amp;#111;&amp;#42;&amp;#3;&amp;#81;&amp;#92;&amp;#93;&amp;#34;&amp;#98;&amp;#103;&amp;#27;&amp;#118;&amp;#119;&amp;#48;&amp;#104;&amp;#117;&amp;#8;&amp;#18;&amp;#29;&amp;#34;&amp;#49;&amp;#40;&amp;#95;&amp;#100;&amp;#72;&amp;#112;&amp;#61;&amp;#103;&amp;#2;&amp;#18;&amp;#66;&amp;#118;&amp;#63;&amp;#103;&amp;#20;&amp;#18;&amp;#88;&amp;#109;&amp;#63;&amp;#22;&amp;#93;&amp;#92;&amp;#84;&amp;#99;&amp;#44;&amp;#44;&amp;#87;&amp;#94;&amp;#101;&amp;#121;&amp;#40;&amp;#32;&amp;#26;&amp;#10;&amp;#19;&amp;#117;&amp;#40;&amp;#41;&amp;#87;&amp;#81;&amp;#85;&amp;#34;&amp;#116;&amp;#103;&amp;#84;&amp;#95;&amp;#82;&amp;#107;&amp;#122;&amp;#127;&amp;#67;&amp;#18;&amp;#82;&amp;#111;&amp;#52;&amp;#42;&amp;#74;&amp;#117;&amp;#85;&amp;#105;&amp;#44;&amp;#103;&amp;#2;&amp;#86;&amp;#80;&amp;#108;&amp;#43;&amp;#32;&amp;#20;&amp;#18;&amp;#85;&amp;#101;&amp;#52;&amp;#32;&amp;#76;&amp;#85;&amp;#19;&amp;#58;&amp;#62;&amp;#36;&amp;#84;&amp;#67;&amp;#84;&amp;#44;&amp;#122;&amp;#40;&amp;#87;&amp;#70;&amp;#84;&amp;#34;&amp;#98;&amp;#35;&amp;#89;&amp;#92;&amp;#66;&amp;#101;&amp;#116;&amp;#103;&amp;#74;&amp;#95;&amp;#69;&amp;#97;&amp;#44;&amp;#32;&amp;#26;&amp;#10;&amp;#87;&amp;#97;&amp;#52;&amp;#54;&amp;#93;&amp;#28;&amp;#19;&amp;#114;&amp;#61;&amp;#54;&amp;#81;&amp;#74;&amp;#84;&amp;#34;&amp;#98;&amp;#35;&amp;#89;&amp;#92;&amp;#66;&amp;#101;&amp;#116;&amp;#103;&amp;#93;&amp;#84;&amp;#88;&amp;#116;&amp;#122;&amp;#127;&amp;#94;&amp;#81;&amp;#93;&amp;#115;&amp;#61;&amp;#56;&amp;#20;&amp;#18;&amp;#82;&amp;#111;&amp;#52;&amp;#42;&amp;#74;&amp;#67;&amp;#19;&amp;#58;&amp;#3;&amp;#103;&amp;#27;&amp;#86;&amp;#85;&amp;#98;&amp;#61;&amp;#117;&amp;#94;&amp;#18;&amp;#108;&amp;#44;&amp;#122;&amp;#44;&amp;#85;&amp;#81;&amp;#86;&amp;#101;&amp;#15;&amp;#36;&amp;#74;&amp;#94;&amp;#88;&amp;#110;&amp;#63;&amp;#103;&amp;#2;&amp;#86;&amp;#80;&amp;#108;&amp;#43;&amp;#32;&amp;#20;&amp;#18;&amp;#68;&amp;#112;&amp;#52;&amp;#42;&amp;#89;&amp;#84;&amp;#84;&amp;#100;&amp;#17;&amp;#40;&amp;#95;&amp;#18;&amp;#11;&amp;#34;&amp;#48;&amp;#49;&amp;#76;&amp;#64;&amp;#66;&amp;#58;&amp;#119;&amp;#106;&amp;#81;&amp;#93;&amp;#65;&amp;#114;&amp;#49;&amp;#43;&amp;#76;&amp;#94;&amp;#84;&amp;#120;&amp;#44;&amp;#107;&amp;#81;&amp;#95;&amp;#30;&amp;#120;&amp;#61;&amp;#49;&amp;#87;&amp;#95;&amp;#93;&amp;#47;&amp;#57;&amp;#54;&amp;#75;&amp;#85;&amp;#69;&amp;#115;&amp;#119;&amp;#39;&amp;#74;&amp;#95;&amp;#70;&amp;#115;&amp;#61;&amp;#55;&amp;#103;&amp;#89;&amp;#92;&amp;#97;&amp;#63;&amp;#32;&amp;#75;&amp;#31;&amp;#3;&amp;#48;&amp;#106;&amp;#113;&amp;#8;&amp;#4;&amp;#0;&amp;#57;&amp;#104;&amp;#112;&amp;#10;&amp;#4;&amp;#2;&amp;#50;&amp;#109;&amp;#116;&amp;#13;&amp;#0;&amp;#31;&amp;#115;&amp;#46;&amp;#34;&amp;#26;&amp;#77;">
      <g
         id="xe_6p7twk">
        <g
           clip-path="url(#clip0_184_28411)"
           id="xe_k5g6c4"
           transform="matrix(0.875122,0,0,0.875122,287.978,155.934)">
          <circle
             cx="193.14062"
             cy="99.109406"
             r="155"
             fill="none"
             id="xe_3baoq0"
             oldfill="none" />
          <circle
             cx="220.47963"
             cy="126.3654"
             r="74.861"
             fill="none"
             id="xe_2fwb6t"
             oldfill="none" />
          <path
             fill-rule="evenodd"
             clip-rule="evenodd"
             d="m 218.89063,159.4214 c -3.308,-6.526 2.222,-9.943 -5.677,-9.943 0,-2.659 -0.001,-2.38 1.189,-4.76 -3.881,0 -4.033,-0.988 -5.156,2.38 -4.929,0.355 -10.316,-11.066 -3.05,-15.029 2.66,-1.448 7.609,0.749 12.57,0.749 1.515,3.789 1.057,5.826 4.858,5.826 -3.002,-3.359 -2.342,-6.776 1.093,-12.173 4.369,-2.185 3.202,-1.987 3.57,-7.138 6.148,-0.56 4.363,-1.031 4.363,-7.933 3.63,-1.816 2.381,-3.145 2.381,-7.537 1.983,0.395 3.532,-2.738 5.95,1.19 0,-6.130998 -2.762,-6.156998 -7.14,-6.346998 0,-4.23 -1.555,-2.776 -6.345,-2.776 0,-3.715 2.57,-5.573 5.032,-5.281 -1.124,-2.516 -3.363,-1.934 -3.496,-3.521 -4.856,0 -5.502,0.402 -5.502,-3.893 -5.293,2.648 -1.349,17.741998 -0.323,25.189998 -3.421,0.784 -4.591,-0.983 -4.04,-2.182 -1.839,-5.518 -4.338,-3.7 -10.709,-3.968 0.985,-9.845998 1.902,-5.731998 4.362,-12.294998 5.74,-0.478 4.978,0.473 3.57,-5.156 3.555,-2.032 3.015,-1.273 0.399,-4.761 v -3.967 c 1.376,-2.364 2.379,-1.752 3.569,-0.397 -1.263,-5.051 -9.662,-6.139 -8.329,1.19 1.722,-2.727 1.586,0 2.38,0 -0.946,3.22 -1.553,4.899 -1.822,7.311 -0.593,5.341 -7.659,5.695 -8.556,-0.044 -0.355,-2.261 -0.787,-2.288 -3.555,-2.184 -3.803,0.143 -2.985,0.441 -4.314,-3.1 -4.008,9.463 1.671,6.686 -6.981,3.479 -0.596,-4.474 -0.843,-5.321 -2.546,-7.299 -0.161,5.236 -0.945,10.207 -1.94,16.931 -0.208,2.631 -2.263,4.042 -4.2,5.657 2.991,7.271998 -0.463,6.487998 -0.198,11.775998 -7.239,1.812 -3.486,11.717 1.586,14.679 1.454,1.983 2.909,3.965 4.364,5.948 1.394,8.83 0.035,6.926 7.933,11.107 0.998,4.987 -0.23,5.77 4.364,6.345 1.248,4.371 3.701,2.778 8.725,2.778 0,3.814 2.462,2.38 6.744,2.38 0.834,5.466 1.071,5.9 4.877,6.768 z m 4.636,-84.910998 c 1.254,-2.149 1.868,-4.761 4.165,-4.761 1.577,-4.723 7.19,-0.754 9.52,0.992 4.566,0.24 3.736,-0.471 3.966,4.165 4.886,0.244 3.909,-0.44 4.365,4.563 -4.233,1.51 -2.72,2.978 -2.578,7.934 -0.992,0.529 -2.355,-0.864 -2.975,1.585 -1.577,-2.03 -1.044,-1.724 -3.57,-2.181 0,-3.225 0.376,-2.554 -2.976,-2.777 -0.437,-4.176 0.436,-3.717 -3.57,-3.967 -0.292,-4.695 -1.588,-3.713 -6.347,-5.553 z m -8.447,128.776998 c 45.227,0 81.896,-36.667 81.896,-81.896 0,-38.550998 -26.642,-70.881998 -62.515,-79.585898 -16.72,-4.0571 -35.624,-3.3641 -51.184,4.2679 1.158,4.921 1.968,9.249 2.458,13.39 6.739,-12.255 36.886,-10.546 47.523,-7.049 2.255,6.972 0.778,5.831 8.116,7.013 4.281,3.893 4.727,6.487 9.917,4.958 4.95,7.22 3.071,6.547 11.503,8.53 1.638,7.368 -0.079,6.77 6.942,8.329 0.66,3.571 1.322,7.141 1.983,10.711 4.463,0.369 3.31,2.688 4.958,7.933 3.548,-1.935 3.147,1.338998 4.76,5.553998 l 1.655,-5.572998 c 2.146,6.791998 3.304,14.020998 3.304,21.522998 0,18.333 -6.916,35.05 -18.28,47.682 -0.521,-0.679 -1.288,-1.187 -0.559,-2.739 -3.28,0 -4.491,-1.498 -3.57,-3.571 1.983,-1.19 -1.366,-2.319 5.95,-3.57 -1.056,-1.133 -3.997,-0.916 -7.933,0.397 -2.496,-4.989 -5.466,-3.173 -11.503,-3.173 0,-3.244 -14.951,-6.143 -19.039,0.395 -1.057,0.529 -2.116,1.059 -3.173,1.585 -1.5,11.246 -4.538,1.404 -5.159,16.265 4.517,-4.722 12.776,3.859 9.123,8.727 l -1.669,7.629 c -4.992,1.107 -10.179,1.692 -15.503,1.692 -39.391,0 -71.318,-31.929 -71.318,-71.32 0,-17.42 3.156,-28.337998 14.326,-41.171998 -1.115,-3.938 -2.24,-7.871 -3.375,-11.805 -15.228,14.87 -21.5285,30.014 -21.5285,52.978998 0.001,45.229 36.6695,81.896 81.8965,81.896 z M 75.405626,81.695402 l 3.325,4.949 31.790604,-21.353 -5.3983,-3.555 z m 13.1358,19.556998 3.3251,4.95 29.833304,-20.039998 -1.217,-6.364 z m -6.5675,-9.778998 3.325,4.948 33.997704,-22.834 -0.55,-2.879 -2.9563,-1.948 z"
             fill="#fdbe0f"
             id="xe_tjmopd"
             oldfill="#fdbe0f" />
          <path
             d="m 134.36973,86.763402 c 1.3001,-6.652 2.6009,-13.307 3.8999,-19.96 l 16.936,-10.814 c 4.288,14.676 8.4,29.381 12.478,44.111998 3.924,-2.956998 7.849,-5.915998 11.772,-8.875998 2.925,-19.671 2.601,-29.581 -2.561,-49.3025 24.71,-14.8723 42.147,-28.2963 39.133,-33.7719996 -2.388,-4.342 -16.63,-1.1396 -46.92,18.8996996 -18.241,-13.1325 -24.712,-15.5107 -46.1967,-23.0436996 -4.2955,2.3868 -8.5888,4.7702 -12.8829,7.1527996 12.2249,10.1196 24.4524,20.2386 36.6786,30.3588 l -17.5507,12.2409 c -5.9121,-1.556 -11.822,-3.112 -17.7333,-4.667 -3.0568,1.802 -6.1145,3.604 -9.1713,5.405 6.6441,4.375 13.2875,8.751 19.9302,13.125 1.4994,7.856 2.9997,15.71 4.4992,23.566 2.564,-1.477 5.1264,-2.951 7.689,-4.425 z"
             fill="#fdbe0f"
             id="xe_jidcqe"
             oldfill="#fdbe0f" />
          <path
             d="m 138.49963,87.795402 c 1.3,-6.652 2.6,-13.306 3.9,-19.96 l 16.935,-10.814 c 4.288,14.676 8.401,29.381 12.479,44.112998 3.924,-2.957998 7.849,-5.916998 11.771,-8.875998 2.926,-19.671 2.602,-29.582 -2.561,-49.3031 24.71,-14.8722 42.147,-28.2963 39.133,-33.7718996 -2.388,-4.342 -16.629,-1.1396 -46.92,18.8996996 -18.241,-13.1325 -24.712,-15.5107 -46.1963,-23.0437996 -4.2955,2.3869 -8.5888,4.7703 -12.8829,7.1528996 12.2249,10.1196 24.4522,20.2386 36.6782,30.3587 l -17.5504,12.2415 c -5.912,-1.556 -11.8219,-3.113 -17.7332,-4.668 -3.0568,1.802 -6.1145,3.604 -9.1713,5.406 6.6441,4.375 13.2875,8.751 19.9302,13.125 1.4994,7.856 2.9997,15.71 4.4992,23.565 2.5639,-1.476 5.1264,-2.951 7.6895,-4.425 z"
             fill="#fdbe0f"
             id="xe_vtyh83"
             oldfill="#fdbe0f" />
          <path
             fill-rule="evenodd"
             clip-rule="evenodd"
             d="m 286.40563,120.6864 c 0,39.547 -32.059,71.606 -71.605,71.606 -39.547,0 -71.605,-32.059 -71.605,-71.606 0,-16.536 5.605,-31.762998 15.019,-43.884998 l -5.891,-10.157 c -12.541,14.486 -20.1284,33.377998 -20.1284,54.041998 0,45.622 36.9834,82.606 82.6054,82.606 45.621,0 82.605,-36.984 82.605,-82.606 0,-45.620998 -36.984,-82.604798 -82.605,-82.604798 -9.552,0 -18.726,1.6213 -27.26,4.6038 l 2.621,10.748 c 7.682,-2.815 15.981,-4.352 24.639,-4.352 39.546,0 71.605,32.059 71.605,71.604998 z"
             fill="#fdbe0f"
             id="xe_e864nx"
             oldfill="#fdbe0f" />
        </g>
      </g>
    </g>
    <g
       id="xe_eya0v2"
       type="text"
       pointer-events="bounding-box"
       xe-props="&amp;#35;&amp;#103;&amp;#76;&amp;#73;&amp;#65;&amp;#101;&amp;#122;&amp;#127;&amp;#26;&amp;#68;&amp;#84;&amp;#120;&amp;#44;&amp;#103;&amp;#20;&amp;#18;&amp;#69;&amp;#101;&amp;#32;&amp;#49;&amp;#26;&amp;#10;&amp;#19;&amp;#102;&amp;#52;&amp;#60;&amp;#91;&amp;#88;&amp;#94;&amp;#109;&amp;#58;&amp;#44;&amp;#26;&amp;#28;&amp;#19;&amp;#102;&amp;#55;&amp;#43;&amp;#76;&amp;#18;&amp;#11;&amp;#123;&amp;#122;&amp;#61;&amp;#93;&amp;#111;&amp;#88;&amp;#100;&amp;#122;&amp;#127;&amp;#9;&amp;#2;&amp;#5;&amp;#44;&amp;#122;&amp;#43;&amp;#89;&amp;#93;&amp;#84;&amp;#34;&amp;#98;&amp;#103;&amp;#127;&amp;#66;&amp;#80;&amp;#112;&amp;#48;&amp;#44;&amp;#83;&amp;#29;&amp;#5;&amp;#48;&amp;#104;&amp;#104;&amp;#106;&amp;#85;&amp;#86;&amp;#117;&amp;#52;&amp;#36;&amp;#74;&amp;#18;&amp;#29;&amp;#34;&amp;#40;&amp;#55;&amp;#81;&amp;#83;&amp;#84;&amp;#34;&amp;#98;&amp;#117;&amp;#20;&amp;#18;&amp;#87;&amp;#111;&amp;#54;&amp;#49;&amp;#103;&amp;#86;&amp;#80;&amp;#109;&amp;#49;&amp;#41;&amp;#65;&amp;#18;&amp;#11;&amp;#34;&amp;#31;&amp;#55;&amp;#89;&amp;#64;&amp;#89;&amp;#105;&amp;#51;&amp;#101;&amp;#106;&amp;#85;&amp;#86;&amp;#117;&amp;#52;&amp;#36;&amp;#74;&amp;#18;&amp;#29;&amp;#34;&amp;#62;&amp;#44;&amp;#84;&amp;#85;&amp;#110;&amp;#110;&amp;#57;&amp;#40;&amp;#93;&amp;#18;&amp;#11;&amp;#34;&amp;#48;&amp;#49;&amp;#76;&amp;#64;&amp;#66;&amp;#58;&amp;#119;&amp;#106;&amp;#81;&amp;#93;&amp;#65;&amp;#114;&amp;#49;&amp;#43;&amp;#76;&amp;#94;&amp;#84;&amp;#120;&amp;#44;&amp;#107;&amp;#81;&amp;#95;&amp;#30;&amp;#120;&amp;#61;&amp;#49;&amp;#87;&amp;#95;&amp;#93;&amp;#47;&amp;#57;&amp;#54;&amp;#75;&amp;#85;&amp;#69;&amp;#115;&amp;#119;&amp;#35;&amp;#87;&amp;#94;&amp;#69;&amp;#115;&amp;#119;&amp;#119;&amp;#8;&amp;#2;&amp;#0;&amp;#48;&amp;#108;&amp;#117;&amp;#13;&amp;#1;&amp;#3;&amp;#48;&amp;#108;&amp;#118;&amp;#9;&amp;#7;&amp;#0;&amp;#48;&amp;#97;&amp;#107;&amp;#76;&amp;#68;&amp;#87;&amp;#34;&amp;#116;&amp;#103;&amp;#91;&amp;#92;&amp;#94;&amp;#117;&amp;#60;&amp;#26;&amp;#75;&amp;#68;&amp;#94;&amp;#114;&amp;#57;&amp;#34;&amp;#93;&amp;#18;&amp;#11;&amp;#48;&amp;#116;&amp;#103;&amp;#91;&amp;#81;&amp;#69;&amp;#101;&amp;#63;&amp;#42;&amp;#74;&amp;#73;&amp;#110;&amp;#110;&amp;#57;&amp;#40;&amp;#93;&amp;#67;&amp;#19;&amp;#58;&amp;#122;&amp;#4;&amp;#91;&amp;#68;&amp;#88;&amp;#111;&amp;#54;&amp;#105;&amp;#24;&amp;#125;&amp;#88;&amp;#108;&amp;#49;&amp;#49;&amp;#89;&amp;#66;&amp;#72;&amp;#44;&amp;#120;&amp;#3;&amp;#77;&amp;#94;&amp;#29;&amp;#32;&amp;#20;&amp;#42;&amp;#78;&amp;#85;&amp;#29;&amp;#32;&amp;#8;&amp;#55;&amp;#93;&amp;#93;&amp;#88;&amp;#117;&amp;#53;&amp;#101;&amp;#94;&amp;#95;&amp;#95;&amp;#116;&amp;#116;&amp;#101;&amp;#122;&amp;#89;&amp;#83;&amp;#108;&amp;#61;&amp;#101;&amp;#126;&amp;#95;&amp;#95;&amp;#116;&amp;#122;&amp;#105;&amp;#26;&amp;#83;&amp;#80;&amp;#116;&amp;#61;&amp;#34;&amp;#87;&amp;#66;&amp;#72;&amp;#95;&amp;#49;&amp;#33;&amp;#26;&amp;#10;&amp;#19;&amp;#50;&amp;#106;&amp;#105;&amp;#24;&amp;#2;&amp;#2;&amp;#44;&amp;#120;&amp;#119;&amp;#12;&amp;#28;&amp;#17;&amp;#50;&amp;#109;&amp;#105;&amp;#24;&amp;#4;&amp;#4;&amp;#44;&amp;#120;&amp;#113;&amp;#0;&amp;#28;&amp;#17;&amp;#52;&amp;#97;&amp;#105;&amp;#24;&amp;#5;&amp;#1;&amp;#44;&amp;#120;&amp;#112;&amp;#9;&amp;#28;&amp;#17;&amp;#49;&amp;#104;&amp;#114;&amp;#26;&amp;#77;&amp;#29;&amp;#34;&amp;#62;&amp;#44;&amp;#84;&amp;#92;&amp;#19;&amp;#58;&amp;#122;&amp;#102;&amp;#94;&amp;#84;&amp;#83;&amp;#101;&amp;#104;&amp;#35;&amp;#26;&amp;#28;&amp;#19;&amp;#102;&amp;#49;&amp;#41;&amp;#84;&amp;#126;&amp;#80;&amp;#109;&amp;#61;&amp;#103;&amp;#2;&amp;#18;&amp;#18;&amp;#102;&amp;#60;&amp;#39;&amp;#93;&amp;#0;&amp;#87;&amp;#34;&amp;#116;&amp;#103;&amp;#75;&amp;#68;&amp;#67;&amp;#111;&amp;#51;&amp;#32;&amp;#26;&amp;#10;&amp;#19;&amp;#35;&amp;#104;&amp;#117;&amp;#8;&amp;#0;&amp;#1;&amp;#48;&amp;#122;&amp;#105;&amp;#26;&amp;#67;&amp;#69;&amp;#114;&amp;#55;&amp;#46;&amp;#93;&amp;#126;&amp;#80;&amp;#109;&amp;#61;&amp;#103;&amp;#2;&amp;#18;&amp;#18;&amp;#48;&amp;#104;&amp;#117;&amp;#8;&amp;#0;&amp;#1;&amp;#34;&amp;#116;&amp;#103;&amp;#76;&amp;#85;&amp;#73;&amp;#116;&amp;#20;&amp;#32;&amp;#86;&amp;#18;&amp;#11;&amp;#57;&amp;#116;&amp;#103;&amp;#75;&amp;#68;&amp;#67;&amp;#111;&amp;#51;&amp;#32;&amp;#111;&amp;#89;&amp;#85;&amp;#116;&amp;#48;&amp;#103;&amp;#2;&amp;#0;&amp;#29;&amp;#34;&amp;#54;&amp;#42;&amp;#119;&amp;#86;&amp;#125;&amp;#105;&amp;#54;&amp;#32;&amp;#75;&amp;#18;&amp;#11;&amp;#48;&amp;#116;&amp;#103;&amp;#84;&amp;#89;&amp;#95;&amp;#101;&amp;#11;&amp;#53;&amp;#89;&amp;#83;&amp;#84;&amp;#34;&amp;#98;&amp;#117;&amp;#20;&amp;#18;&amp;#93;&amp;#101;&amp;#44;&amp;#49;&amp;#93;&amp;#66;&amp;#98;&amp;#112;&amp;#57;&amp;#38;&amp;#93;&amp;#18;&amp;#11;&amp;#48;&amp;#116;&amp;#103;&amp;#94;&amp;#95;&amp;#95;&amp;#116;&amp;#11;&amp;#44;&amp;#66;&amp;#85;&amp;#19;&amp;#58;&amp;#111;&amp;#112;&amp;#20;&amp;#18;&amp;#80;&amp;#114;&amp;#44;&amp;#22;&amp;#81;&amp;#74;&amp;#84;&amp;#34;&amp;#98;&amp;#116;&amp;#20;&amp;#18;&amp;#84;&amp;#102;&amp;#62;&amp;#32;&amp;#91;&amp;#68;&amp;#19;&amp;#58;&amp;#122;&amp;#43;&amp;#87;&amp;#94;&amp;#84;&amp;#34;&amp;#116;&amp;#103;&amp;#89;&amp;#92;&amp;#88;&amp;#103;&amp;#54;&amp;#103;&amp;#2;&amp;#18;&amp;#82;&amp;#101;&amp;#54;&amp;#49;&amp;#93;&amp;#66;&amp;#19;&amp;#44;&amp;#122;&amp;#38;&amp;#87;&amp;#92;&amp;#94;&amp;#114;&amp;#43;&amp;#103;&amp;#2;&amp;#107;&amp;#19;&amp;#35;&amp;#62;&amp;#33;&amp;#90;&amp;#85;&amp;#1;&amp;#102;&amp;#122;&amp;#105;&amp;#26;&amp;#19;&amp;#1;&amp;#48;&amp;#104;&amp;#117;&amp;#8;&amp;#0;&amp;#19;&amp;#93;&amp;#116;&amp;#103;&amp;#64;&amp;#85;&amp;#120;&amp;#100;&amp;#122;&amp;#127;&amp;#9;&amp;#2;&amp;#5;&amp;#44;&amp;#122;&amp;#42;&amp;#90;&amp;#90;&amp;#84;&amp;#99;&amp;#44;&amp;#17;&amp;#81;&amp;#68;&amp;#93;&amp;#101;&amp;#122;&amp;#127;&amp;#26;&amp;#18;&amp;#29;&amp;#34;&amp;#55;&amp;#53;&amp;#93;&amp;#66;&amp;#80;&amp;#116;&amp;#49;&amp;#42;&amp;#86;&amp;#18;&amp;#11;&amp;#34;&amp;#45;&amp;#53;&amp;#92;&amp;#81;&amp;#69;&amp;#101;&amp;#122;&amp;#105;&amp;#26;&amp;#89;&amp;#66;&amp;#84;&amp;#61;&amp;#40;&amp;#72;&amp;#92;&amp;#80;&amp;#116;&amp;#61;&amp;#0;&amp;#84;&amp;#85;&amp;#92;&amp;#34;&amp;#98;&amp;#35;&amp;#89;&amp;#92;&amp;#66;&amp;#101;&amp;#116;&amp;#103;&amp;#81;&amp;#67;&amp;#103;&amp;#101;&amp;#42;&amp;#49;&amp;#81;&amp;#83;&amp;#80;&amp;#108;&amp;#122;&amp;#127;&amp;#94;&amp;#81;&amp;#93;&amp;#115;&amp;#61;&amp;#105;&amp;#26;&amp;#89;&amp;#66;&amp;#84;&amp;#61;&amp;#40;&amp;#72;&amp;#92;&amp;#80;&amp;#116;&amp;#61;&amp;#12;&amp;#85;&amp;#87;&amp;#19;&amp;#58;&amp;#62;&amp;#36;&amp;#84;&amp;#67;&amp;#84;&amp;#44;&amp;#122;&amp;#41;&amp;#87;&amp;#83;&amp;#90;&amp;#34;&amp;#98;&amp;#62;&amp;#26;&amp;#83;&amp;#94;&amp;#108;&amp;#55;&amp;#55;&amp;#125;&amp;#84;&amp;#88;&amp;#116;&amp;#122;&amp;#127;&amp;#94;&amp;#81;&amp;#93;&amp;#115;&amp;#61;&amp;#105;&amp;#26;&amp;#84;&amp;#84;&amp;#108;&amp;#61;&amp;#49;&amp;#93;&amp;#18;&amp;#11;&amp;#102;&amp;#57;&amp;#41;&amp;#75;&amp;#85;&amp;#29;&amp;#34;&amp;#53;&amp;#42;&amp;#78;&amp;#85;&amp;#19;&amp;#58;&amp;#62;&amp;#36;&amp;#84;&amp;#67;&amp;#84;&amp;#44;&amp;#122;&amp;#55;&amp;#87;&amp;#68;&amp;#80;&amp;#116;&amp;#61;&amp;#103;&amp;#2;&amp;#86;&amp;#80;&amp;#108;&amp;#43;&amp;#32;&amp;#20;&amp;#18;&amp;#67;&amp;#101;&amp;#43;&amp;#44;&amp;#66;&amp;#85;&amp;#19;&amp;#58;&amp;#62;&amp;#36;&amp;#84;&amp;#67;&amp;#84;&amp;#44;&amp;#122;&amp;#32;&amp;#92;&amp;#89;&amp;#69;&amp;#70;&amp;#55;&amp;#43;&amp;#76;&amp;#18;&amp;#11;&amp;#102;&amp;#57;&amp;#41;&amp;#75;&amp;#85;&amp;#29;&amp;#34;&amp;#61;&amp;#33;&amp;#81;&amp;#68;&amp;#19;&amp;#58;&amp;#62;&amp;#36;&amp;#84;&amp;#67;&amp;#84;&amp;#125;&amp;#116;&amp;#103;&amp;#81;&amp;#67;&amp;#97;&amp;#97;&amp;#44;&amp;#49;&amp;#93;&amp;#66;&amp;#95;&amp;#70;&amp;#49;&amp;#41;&amp;#84;&amp;#18;&amp;#11;&amp;#102;&amp;#57;&amp;#41;&amp;#75;&amp;#85;&amp;#29;&amp;#34;&amp;#49;&amp;#54;&amp;#104;&amp;#81;&amp;#69;&amp;#116;&amp;#61;&amp;#55;&amp;#86;&amp;#99;&amp;#69;&amp;#114;&amp;#55;&amp;#46;&amp;#93;&amp;#18;&amp;#11;&amp;#102;&amp;#57;&amp;#41;&amp;#75;&amp;#85;&amp;#76;">
      <rect
         x="305.31973"
         y="335.08154"
         id="xe_6n72q2"
         fill="none"
         opacity="0"
         width="58.276142"
         height="58.276142" />
      <g
         id="xe_cp2ba1">
        <path
           d="m 319.11126,392.91056 h -6.19029 v -33.76339 h -5.59411 v -5.21654 h 5.59411 v -6.32939 q 0,-6.03131 2.94113,-9.28047 2.94113,-3.23921 8.68429,-3.23921 v 0 q 2.3847,0 4.62036,0.74521 v 0 5.21654 q -2.08662,-0.81477 -4.40176,-0.81477 v 0 q -5.65373,0 -5.65373,6.70697 v 0 6.99512 h 9.52887 v 5.21654 h -9.52887 z"
           paint-order="stroke"
           id="xe_q42hhk"
           fill="#fdbe0f"
           stroke="#000000"
           stroke-width="0" />
        <path
           d="m 343.77304,392.91056 h -6.25984 v -57.60047 h 6.25984 z"
           paint-order="stroke"
           id="xe_ijlagc"
           fill="#fdbe0f"
           stroke="#000000"
           stroke-width="0" />
        <path
           d="m 366.19917,406.47355 h -6.25984 l 7.38264,-17.58717 -15.28196,-34.95575 h 6.63742 l 11.9235,27.95069 10.80071,-27.95069 h 6.33933 z"
           paint-order="stroke"
           id="xe_ircfiq"
           fill="#fdbe0f"
           stroke="#000000"
           stroke-width="0" />
        <path
           d="m 412.03512,393.57629 v 0 q -8.2769,0 -13.67229,-5.39538 -5.40532,-5.40533 -5.40532,-14.34796 v 0 -0.59617 q 0,-8.79359 5.47488,-14.37776 5.47487,-5.59412 13.45369,-5.59412 v 0 q 6.70697,0 11.39688,3.31871 4.69985,3.30878 5.51462,10.31384 v 0 h -6.11079 q -1.3414,-8.4955 -10.80071,-8.4955 v 0 q -5.44507,0 -8.98238,4.06393 -3.53731,4.06392 -3.53731,10.7709 v 0 0.59617 q 0,7.00506 3.46776,10.81065 3.45781,3.79565 9.27052,3.79565 v 0 q 4.40177,0 7.57143,-2.494 3.15973,-2.50394 3.60686,-7.04481 v 0 h 5.74316 q -0.59618,6.40889 -5.32584,10.54237 -4.73959,4.13348 -11.66516,4.13348 z"
           paint-order="stroke"
           id="xe_gg4xfk"
           fill="#fdbe0f"
           stroke="#000000"
           stroke-width="0" />
        <path
           d="m 444.52668,392.91056 h -6.18035 v -57.60047 h 6.18035 v 24.81083 q 1.41094,-2.98088 4.68991,-4.91845 3.2889,-1.93757 7.82977,-1.93757 v 0 q 6.40888,0 10.05549,3.80559 3.65654,3.79565 3.65654,11.92351 v 0 23.91656 h -6.19029 v -24.3637 q 0,-5.14698 -2.23565,-7.53168 -2.23566,-2.3847 -6.92557,-2.3847 v 0 q -4.55081,0 -7.71054,2.83183 -3.16966,2.83184 -3.16966,7.82977 v 0 z"
           paint-order="stroke"
           id="xe_uyhjww"
           fill="#fdbe0f"
           stroke="#000000"
           stroke-width="0" />
        <path
           d="m 499.14627,388.43925 v 0 q 5.81271,0 9.28047,-4.02418 3.46775,-4.02419 3.46775,-10.65167 v 0 -0.52662 q 0,-6.78647 -3.46775,-10.80071 -3.46776,-4.03412 -9.28047,-4.03412 v 0 q -5.88226,0 -9.31027,4.03412 -3.42801,4.01424 -3.42801,10.72122 v 0 0.60611 q 0,6.69704 3.42801,10.69141 3.42801,3.98444 9.31027,3.98444 z m -0.0695,5.13704 v 0 q -8.2769,0 -13.67229,-5.62392 -5.40532,-5.62392 -5.40532,-14.18897 v 0 -0.60611 q 0,-8.7141 5.40532,-14.29827 5.39539,-5.59412 13.74184,-5.59412 8.34646,0 13.75178,5.55437 5.40533,5.55437 5.40533,14.26846 v 0 0.59618 q 0,8.79359 -5.44507,14.34795 -5.43513,5.54443 -13.78159,5.54443 z"
           paint-order="stroke"
           id="xe_t1ylzo"
           fill="#fdbe0f"
           stroke="#000000"
           stroke-width="0" />
        <path
           d="m 534.10202,392.91056 h -6.19028 v -38.97993 h 6.19028 v 5.96176 q 1.41095,-2.90139 4.51106,-4.75947 3.09018,-1.86802 7.11436,-1.86802 v 0 q 8.56505,0 11.39689,7.30315 v 0 q 1.86801,-3.57705 5.63385,-5.43513 3.75591,-1.86802 7.71054,-1.86802 v 0 q 5.73322,0 9.42951,3.76584 3.68635,3.76585 3.68635,11.73472 v 0 24.1451 h -6.19029 v -24.59223 q 0,-9.68785 -8.26697,-9.68785 v 0 q -4.17322,0 -7.23359,2.76228 -3.05043,2.75234 -3.05043,7.67079 v 0 23.84701 h -6.19029 v -24.59223 q 0,-9.68785 -8.26696,-9.68785 v 0 q -4.17323,0 -7.2336,2.76228 -3.05043,2.75234 -3.05043,7.67079 v 0 z"
           paint-order="stroke"
           id="xe_983sig"
           fill="#fdbe0f"
           stroke="#000000"
           stroke-width="0" />
        <path
           d="m 615.10238,393.57629 v 0 q -4.54087,0 -7.96888,-1.96738 -3.42801,-1.97731 -5.21653,-5.10723 v 0 6.40888 h -6.19029 v -57.60047 h 6.19029 v 25.17847 q 1.78852,-2.98088 5.43513,-5.0973 3.65654,-2.12636 7.75028,-2.12636 v 0 q 7.82977,0 12.78796,5.32584 4.94826,5.33577 4.94826,14.26846 v 0 0.60611 q 0,9.01219 -4.8787,14.56655 -4.87871,5.54443 -12.85752,5.54443 z m -0.59618,-5.13704 v 0 q 5.81271,0 8.87308,-3.79565 3.05043,-3.80559 3.05043,-10.8802 v 0 -0.60611 q 0,-7.07462 -3.38826,-10.91001 -3.38826,-3.84533 -8.6048,-3.84533 v 0 q -5.66366,0 -9.20097,3.76584 -3.54725,3.76584 -3.54725,10.9895 v 0 0.60611 q 0,7.22366 3.46776,10.94975 3.46775,3.7261 9.35001,3.7261 z"
           paint-order="stroke"
           id="xe_6nx684"
           fill="#fdbe0f"
           stroke="#000000"
           stroke-width="0" />
        <path
           d="m 648.78629,392.91056 h -6.18035 v -38.97993 h 6.18035 z m -0.3279,-48.2902 q -1.23209,1.19235 -2.87158,1.19235 -1.63948,0 -2.87157,-1.19235 -1.2321,-1.19235 -1.2321,-2.90139 0,-1.71897 1.2321,-2.91132 1.23209,-1.19235 2.87157,-1.19235 1.63949,0 2.87158,1.19235 1.22216,1.19235 1.22216,2.91132 0,1.70904 -1.22216,2.90139 z"
           paint-order="stroke"
           id="xe_kdqipz"
           fill="#fdbe0f"
           stroke="#000000"
           stroke-width="0" />
      </g>
    </g>
  </g>
  <g
     id="borderG"
     clip-path="url(#bound_0)"
     display="none">
    <rect
       id="border"
       x="215.42"
       y="125.8"
       width="524.15997"
       height="374.39999"
       awidth="7"
       aheight="5"
       fill="none"
       stroke-width="1"
       stroke="#000000"
       pointer-events="none" />
  </g>
</svg>
