<svg xmlns="http://www.w3.org/2000/svg" viewBox="0 0 640 512"><!--!Font Awesome Free 6.5.2 by @fontawesome - https://fontawesome.com License - https://fontawesome.com/license/free Copyright 2024 Fonticons, Inc.--><path fill="#828284" d="M497.9 225.9L286.1 14.1A48 48 0 0 0 252.1 0H48C21.5 0 0 21.5 0 48v204.1a48 48 0 0 0 14.1 33.9l211.9 211.9c18.7 18.7 49.1 18.7 67.9 0l204.1-204.1c18.7-18.7 18.7-49.1 0-67.9zM112 160c-26.5 0-48-21.5-48-48s21.5-48 48-48 48 21.5 48 48-21.5 48-48 48zm513.9 133.8L421.8 497.9c-18.7 18.7-49.1 18.7-67.9 0l-.4-.4L527.6 323.5c17-17 26.4-39.6 26.4-63.6s-9.4-46.6-26.4-63.6L331.4 0h48.7a48 48 0 0 1 33.9 14.1l211.9 211.9c18.7 18.7 18.7 49.1 0 67.9z"/></svg>